<svg width="167" height="48" fill="none" xmlns="http://www.w3.org/2000/svg"><g clip-path="url(#a)" fill="#000"><path d="M27.783 22.283a8.622 8.622 0 0 1 2.584 6.638 13.198 13.198 0 0 1-.387 3.19l-2.93 14.61h-7.882l2.843-14.137a8.069 8.069 0 0 0 0-1.81 4.315 4.315 0 0 0-1.077-3.146 4.78 4.78 0 0 0-3.403-1.12 7.105 7.105 0 0 0-4.91 1.723 9.226 9.226 0 0 0-2.628 5.086L7.366 46.721H0l5.298-26.377h7.237l-.603 2.801a12.358 12.358 0 0 1 8.615-3.232c2.626-.169 5.218.68 7.236 2.37ZM65.775 20.387l-5.298 26.377h-7.236l.56-2.801a12.015 12.015 0 0 1-3.92 2.457 13.864 13.864 0 0 1-4.652.776 9.904 9.904 0 0 1-6.892-2.328 8.621 8.621 0 0 1-2.585-6.638c0-1.074.13-2.146.388-3.189l2.886-14.611h7.667L43.85 34.48a14.12 14.12 0 0 0 0 1.897c0 2.759 1.465 4.31 4.308 4.31 1.75.072 3.46-.53 4.781-1.68a8.622 8.622 0 0 0 2.585-5.13l2.67-13.361 7.581-.13ZM99.502 20.387l-5.298 26.377h-7.236l.56-2.801a12.016 12.016 0 0 1-3.92 2.457 13.864 13.864 0 0 1-4.652.776 9.904 9.904 0 0 1-6.892-2.328 8.621 8.621 0 0 1-2.542-6.638c-.015-1.073.1-2.144.345-3.189l2.886-14.611h7.667l-2.8 14.05a9.479 9.479 0 0 0 0 1.897c0 2.759 1.465 4.31 4.308 4.31a6.846 6.846 0 0 0 4.781-1.68 8.622 8.622 0 0 0 2.585-5.13l2.67-13.361 7.538-.13ZM127.113 21.55a10.344 10.344 0 0 1 4.308 4.31 11.775 11.775 0 0 1 1.55 6.293 16.38 16.38 0 0 1-1.938 7.845 14.957 14.957 0 0 1-5.298 5.56 14.12 14.12 0 0 1-7.495 1.853 11.802 11.802 0 0 1-5.342-1.077 8.624 8.624 0 0 1-3.489-3.276l-.818 3.922h-7.237l7.237-36.463h7.667L113.803 22.8a11.54 11.54 0 0 1 7.624-2.629 11.278 11.278 0 0 1 5.686 1.38Zm-5.772 18.275a7.936 7.936 0 0 0 2.757-3.06 9.498 9.498 0 0 0 .991-4.525 5.951 5.951 0 0 0-1.594-4.31 6.114 6.114 0 0 0-4.308-1.595 7.32 7.32 0 0 0-3.963 1.12 8.01 8.01 0 0 0-2.799 3.06 10.127 10.127 0 0 0-.948 4.526 5.9 5.9 0 0 0 1.594 4.31 5.943 5.943 0 0 0 4.307 1.595 7.104 7.104 0 0 0 3.963-1.25v.13ZM167.043 20.387l-5.298 26.378h-7.237l.56-2.802a12.011 12.011 0 0 1-3.919 2.457 13.867 13.867 0 0 1-4.653.776 9.9 9.9 0 0 1-6.891-2.328 8.62 8.62 0 0 1-2.585-6.637 13.187 13.187 0 0 1 .388-3.19l2.886-14.611h7.667l-2.843 14.137a9.39 9.39 0 0 0 0 1.897c0 2.758 1.465 4.31 4.308 4.31a6.848 6.848 0 0 0 4.781-1.681 8.924 8.924 0 0 0 2.541-5.13l2.714-13.36 7.581-.216ZM102.173 12.5H5.169l.646-1.94h97.09l-.732 1.94Z"/><path fill-rule="evenodd" clip-rule="evenodd" d="M144.085 1.38s-15.55-6.423-21.537 8.62c.861.948 7.021-.302 9.045-2.802-2.627 5.129-11.156 5.344-11.156 5.344a11.588 11.588 0 0 0 9.37 1.825 11.583 11.583 0 0 0 7.558-5.833c2.671-3.793 4.825-6.767 6.72-7.155Z"/></g><defs><clipPath id="a"><path fill="#fff" d="M0 0h167v47.196H0z"/></clipPath></defs></svg>